<svg width="71" height="71" viewBox="0 0 71 71" fill="none" xmlns="http://www.w3.org/2000/svg">
<g filter="url(#filter0_d_2112_4)">
<path fill-rule="evenodd" clip-rule="evenodd" d="M35.6393 53.2131C48.4727 53.2131 58.8762 42.8096 58.8762 29.9762C58.8762 17.1428 48.4727 6.73926 35.6393 6.73926C22.8059 6.73926 12.4023 17.1428 12.4023 29.9762C12.4023 42.8096 22.8059 53.2131 35.6393 53.2131Z" fill="white"/>
</g>
<path fill-rule="evenodd" clip-rule="evenodd" d="M41.9324 38.6738C40.866 40.3653 38.3998 40.3653 37.3334 38.6738L31.7313 29.7878C30.5901 27.9776 31.891 25.6198 34.0309 25.6198L45.2349 25.6198C47.3747 25.6198 48.6756 27.9777 47.5344 29.7878L41.9324 38.6738Z" fill="url(#paint0_linear_2112_4)"/>
<path fill-rule="evenodd" clip-rule="evenodd" d="M29.3469 22.0049C30.4133 20.3134 32.8795 20.3134 33.9459 22.0049L39.548 30.8909C40.6891 32.7011 39.3883 35.059 37.2484 35.059H26.0444C23.9045 35.059 22.6037 32.7011 23.7449 30.8909L29.3469 22.0049Z" fill="url(#paint1_linear_2112_4)"/>
<defs>
<filter id="filter0_d_2112_4" x="0.783882" y="0.930027" width="69.7115" height="69.7106" filterUnits="userSpaceOnUse" color-interpolation-filters="sRGB">
<feFlood flood-opacity="0" result="BackgroundImageFix"/>
<feColorMatrix in="SourceAlpha" type="matrix" values="0 0 0 0 0 0 0 0 0 0 0 0 0 0 0 0 0 0 127 0" result="hardAlpha"/>
<feOffset dy="5.80923"/>
<feGaussianBlur stdDeviation="5.80923"/>
<feColorMatrix type="matrix" values="0 0 0 0 0 0 0 0 0 0 0 0 0 0 0 0 0 0 0.0535402 0"/>
<feBlend mode="normal" in2="BackgroundImageFix" result="effect1_dropShadow_2112_4"/>
<feBlend mode="normal" in="SourceGraphic" in2="effect1_dropShadow_2112_4" result="shape"/>
</filter>
<linearGradient id="paint0_linear_2112_4" x1="39.2634" y1="22.0216" x2="31.5394" y2="35.5686" gradientUnits="userSpaceOnUse">
<stop stop-color="#FFD7A9"/>
<stop offset="1" stop-color="#FFAE70"/>
</linearGradient>
<linearGradient id="paint1_linear_2112_4" x1="32.9913" y1="39.0072" x2="43.9379" y2="24.7682" gradientUnits="userSpaceOnUse">
<stop stop-color="#CD10FF"/>
<stop offset="1" stop-color="#9F06FF"/>
</linearGradient>
</defs>
</svg>
