<svg width="278" height="60" viewBox="0 0 278 60" fill="none" xmlns="http://www.w3.org/2000/svg">
<path d="M28.1521 32.873L1.57437 14.5397C-1.11897 12.6819 -0.203413 8.81377 3.15511 7.90414L31.4025 0.237477C32.6165 -0.20058 33.9673 -0.0259624 35.03 0.706409C36.0927 1.43878 36.7367 2.63891 36.7596 3.92933L35.0855 29.9278C34.887 33.0138 30.8455 34.7308 28.1521 32.873Z" fill="url(#paint0_linear_2108_3)"/>
<path d="M19.7231 37.3987L4.06537 6.77799C3.33561 5.34971 3.46756 3.63299 4.40701 2.333C5.34646 1.03301 6.93503 0.368933 8.52018 0.61355L37.538 5.09207C38.8932 5.30126 40.0656 6.14845 40.6897 7.36954C41.3137 8.59063 41.3135 10.0371 40.6891 11.258L27.3217 37.4002C26.5899 38.8243 25.1231 39.7195 23.522 39.7192C21.9208 39.7189 20.4544 38.8231 19.7231 37.3987Z" fill="url(#paint1_linear_2108_3)"/>
<path d="M36.6881 4.96013L22.2229 2.72754L4.46289 7.54976L11.5518 21.4179L28.1518 32.8727C28.518 33.1226 28.9208 33.314 29.3459 33.4401L35.651 21.1098L36.6881 4.96013Z" fill="#001A49"/>
<path d="M113.363 9.72593C115.22 9.72593 116.726 8.22028 116.726 6.36296C116.726 4.50565 115.22 3 113.363 3C111.506 3 110 4.50565 110 6.36296C110 8.22028 111.506 9.72593 113.363 9.72593Z" fill="#001A49"/>
<path d="M48.7456 26.8281V11.6304C48.7456 11.313 48.8595 11.0444 49.0874 10.8247C49.3153 10.605 49.5879 10.4951 49.9053 10.4951H63.98C64.2974 10.4951 64.5659 10.609 64.7856 10.8369C65.0135 11.0648 65.1274 11.3374 65.1274 11.6548V12.8022C65.1274 13.1196 65.0135 13.3923 64.7856 13.6201C64.5659 13.8398 64.2974 13.9497 63.98 13.9497H53.3477V17.502H62.5029C62.8203 17.502 63.0889 17.6159 63.3086 17.8438C63.5365 18.0635 63.6504 18.332 63.6504 18.6494V19.7969C63.6504 20.1143 63.5365 20.3869 63.3086 20.6147C63.0889 20.8345 62.8203 20.9443 62.5029 20.9443H53.3477V24.5454H63.9556C64.2648 24.5454 64.5293 24.6553 64.749 24.875C64.9688 25.0947 65.0786 25.3633 65.0786 25.6807V26.8525C65.0786 27.1699 64.9647 27.4425 64.7368 27.6704C64.509 27.8901 64.2363 28 63.9189 28H49.9053C49.5879 28 49.3153 27.8901 49.0874 27.6704C48.8595 27.4425 48.7456 27.1618 48.7456 26.8281ZM85.5498 27.4751C85.5498 27.825 85.3423 28 84.9272 28H81.9976C81.6883 28 81.3465 27.8901 80.9722 27.6704C80.606 27.4425 80.3252 27.1699 80.1299 26.8525L78.0547 23.6055C77.2002 22.2708 76.1667 21.6035 74.9541 21.6035H71.9756V26.8525C71.9756 27.1699 71.8617 27.4425 71.6338 27.6704C71.4141 27.8901 71.1455 28 70.8281 28H68.5332C68.2158 28 67.9432 27.8901 67.7153 27.6704C67.4875 27.4425 67.3735 27.1699 67.3735 26.8525V11.6548C67.3735 11.3374 67.4834 11.0648 67.7031 10.8369C67.9229 10.609 68.1914 10.4951 68.5088 10.4951H78.5796C80.4432 10.4951 81.9691 10.9956 83.1572 11.9966C84.3535 12.9976 84.9517 14.3485 84.9517 16.0493C84.9517 18.4175 83.4176 19.9027 80.3496 20.5049C80.8379 20.6839 81.2896 20.9932 81.7046 21.4326C82.1196 21.8639 82.5957 22.4946 83.1328 23.3247L85.3545 26.8525C85.4847 27.0804 85.5498 27.2879 85.5498 27.4751ZM71.9756 18.1489H77.1758C78.014 18.1489 78.7505 17.9821 79.3853 17.6484C80.0282 17.3148 80.3496 16.7817 80.3496 16.0493C80.3496 15.3169 80.0282 14.7839 79.3853 14.4502C78.7505 14.1165 78.014 13.9497 77.1758 13.9497H71.9756V18.1489ZM87.5884 26.8525V11.6548C87.5884 11.3374 87.6982 11.0648 87.918 10.8369C88.1377 10.609 88.4062 10.4951 88.7236 10.4951H92.3125C92.5973 10.4951 92.8984 10.609 93.2158 10.8369C93.5332 11.0648 93.7936 11.3374 93.9971 11.6548L101.37 22.9951V11.6304C101.37 11.313 101.48 11.0444 101.7 10.8247C101.928 10.605 102.2 10.4951 102.518 10.4951H104.617C104.935 10.4951 105.203 10.605 105.423 10.8247C105.651 11.0444 105.765 11.3211 105.765 11.6548V26.8525C105.765 27.1699 105.651 27.4425 105.423 27.6704C105.203 27.8901 104.935 28 104.617 28H100.564C100.247 28 99.9215 27.8901 99.5879 27.6704C99.2542 27.4425 98.9897 27.1699 98.7944 26.8525L92.0439 16.3789V26.8525C92.0439 27.1699 91.93 27.4425 91.7021 27.6704C91.4824 27.8901 91.2139 28 90.8965 28H88.748C88.4307 28 88.158 27.8901 87.9302 27.6704C87.7023 27.4425 87.5884 27.1699 87.5884 26.8525Z" fill="#0C2757"/>
<path d="M49.52 49.582H54.7V50.464H49.52V49.582ZM49.632 54.104H55.526V55H48.596V45.2H55.316V46.096H49.632V54.104ZM67.1352 47.58C67.7326 47.58 68.2506 47.6967 68.6892 47.93C69.1372 48.154 69.4826 48.4993 69.7252 48.966C69.9772 49.4327 70.1032 50.0207 70.1032 50.73V55H69.1092V50.828C69.1092 50.0533 68.9226 49.47 68.5492 49.078C68.1852 48.6767 67.6672 48.476 66.9952 48.476C66.4912 48.476 66.0526 48.5833 65.6792 48.798C65.3152 49.0033 65.0306 49.3067 64.8252 49.708C64.6292 50.1 64.5312 50.576 64.5312 51.136V55H63.5372V50.828C63.5372 50.0533 63.3506 49.47 62.9772 49.078C62.6039 48.6767 62.0812 48.476 61.4092 48.476C60.9146 48.476 60.4806 48.5833 60.1072 48.798C59.7339 49.0033 59.4446 49.3067 59.2392 49.708C59.0432 50.1 58.9452 50.576 58.9452 51.136V55H57.9512V47.65H58.9032V49.638L58.7492 49.288C58.9732 48.756 59.3326 48.3407 59.8272 48.042C60.3312 47.734 60.9239 47.58 61.6052 47.58C62.3239 47.58 62.9352 47.762 63.4392 48.126C63.9432 48.4807 64.2699 49.0173 64.4192 49.736L64.0272 49.582C64.2419 48.9847 64.6199 48.504 65.1612 48.14C65.7119 47.7667 66.3699 47.58 67.1352 47.58ZM76.1209 55.07C75.3556 55.07 74.6836 54.9113 74.1049 54.594C73.5262 54.2673 73.0736 53.824 72.7469 53.264C72.4202 52.6947 72.2569 52.046 72.2569 51.318C72.2569 50.59 72.4109 49.946 72.7189 49.386C73.0362 48.826 73.4656 48.3873 74.0069 48.07C74.5576 47.7433 75.1736 47.58 75.8549 47.58C76.5456 47.58 77.1569 47.7387 77.6889 48.056C78.2302 48.364 78.6549 48.8027 78.9629 49.372C79.2709 49.932 79.4249 50.5807 79.4249 51.318C79.4249 51.3647 79.4202 51.416 79.4109 51.472C79.4109 51.5187 79.4109 51.57 79.4109 51.626H73.0129V50.884H78.8789L78.4869 51.178C78.4869 50.646 78.3702 50.1747 78.1369 49.764C77.9129 49.344 77.6049 49.0173 77.2129 48.784C76.8209 48.5507 76.3682 48.434 75.8549 48.434C75.3509 48.434 74.8982 48.5507 74.4969 48.784C74.0956 49.0173 73.7829 49.344 73.5589 49.764C73.3349 50.184 73.2229 50.6647 73.2229 51.206V51.36C73.2229 51.92 73.3442 52.4147 73.5869 52.844C73.8389 53.264 74.1842 53.5953 74.6229 53.838C75.0709 54.0713 75.5796 54.188 76.1489 54.188C76.5969 54.188 77.0122 54.1087 77.3949 53.95C77.7869 53.7913 78.1229 53.5487 78.4029 53.222L78.9629 53.866C78.6362 54.258 78.2256 54.5567 77.7309 54.762C77.2456 54.9673 76.7089 55.07 76.1209 55.07ZM81.6481 55V47.65H82.6001V49.652L82.5021 49.302C82.7074 48.742 83.0528 48.3173 83.5381 48.028C84.0234 47.7293 84.6254 47.58 85.3441 47.58V48.546C85.3068 48.546 85.2694 48.546 85.2321 48.546C85.1948 48.5367 85.1574 48.532 85.1201 48.532C84.3454 48.532 83.7388 48.77 83.3001 49.246C82.8614 49.7127 82.6421 50.38 82.6421 51.248V55H81.6481ZM90.4255 57.786C89.7535 57.786 89.1095 57.688 88.4935 57.492C87.8775 57.296 87.3782 57.016 86.9955 56.652L87.4995 55.896C87.8448 56.204 88.2695 56.4467 88.7735 56.624C89.2868 56.8107 89.8282 56.904 90.3975 56.904C91.3308 56.904 92.0168 56.6847 92.4555 56.246C92.8942 55.8167 93.1135 55.1447 93.1135 54.23V52.396L93.2535 51.136L93.1555 49.876V47.65H94.1075V54.104C94.1075 55.3733 93.7948 56.302 93.1695 56.89C92.5535 57.4873 91.6388 57.786 90.4255 57.786ZM90.2435 54.72C89.5435 54.72 88.9135 54.5707 88.3535 54.272C87.7935 53.964 87.3502 53.5393 87.0235 52.998C86.7062 52.4567 86.5475 51.836 86.5475 51.136C86.5475 50.436 86.7062 49.82 87.0235 49.288C87.3502 48.7467 87.7935 48.3267 88.3535 48.028C88.9135 47.7293 89.5435 47.58 90.2435 47.58C90.8968 47.58 91.4848 47.7153 92.0075 47.986C92.5302 48.2567 92.9455 48.658 93.2535 49.19C93.5615 49.722 93.7155 50.3707 93.7155 51.136C93.7155 51.9013 93.5615 52.55 93.2535 53.082C92.9455 53.614 92.5302 54.02 92.0075 54.3C91.4848 54.58 90.8968 54.72 90.2435 54.72ZM90.3415 53.838C90.8828 53.838 91.3635 53.726 91.7835 53.502C92.2035 53.2687 92.5348 52.9513 92.7775 52.55C93.0202 52.1393 93.1415 51.668 93.1415 51.136C93.1415 50.604 93.0202 50.1373 92.7775 49.736C92.5348 49.3347 92.2035 49.022 91.7835 48.798C91.3635 48.5647 90.8828 48.448 90.3415 48.448C89.8095 48.448 89.3288 48.5647 88.8995 48.798C88.4795 49.022 88.1482 49.3347 87.9055 49.736C87.6722 50.1373 87.5555 50.604 87.5555 51.136C87.5555 51.668 87.6722 52.1393 87.9055 52.55C88.1482 52.9513 88.4795 53.2687 88.8995 53.502C89.3288 53.726 89.8095 53.838 90.3415 53.838ZM100.196 55.07C99.4302 55.07 98.7582 54.9113 98.1795 54.594C97.6008 54.2673 97.1482 53.824 96.8215 53.264C96.4948 52.6947 96.3315 52.046 96.3315 51.318C96.3315 50.59 96.4855 49.946 96.7935 49.386C97.1108 48.826 97.5402 48.3873 98.0815 48.07C98.6322 47.7433 99.2482 47.58 99.9295 47.58C100.62 47.58 101.232 47.7387 101.764 48.056C102.305 48.364 102.73 48.8027 103.038 49.372C103.346 49.932 103.5 50.5807 103.5 51.318C103.5 51.3647 103.495 51.416 103.486 51.472C103.486 51.5187 103.486 51.57 103.486 51.626H97.0875V50.884H102.954L102.562 51.178C102.562 50.646 102.445 50.1747 102.212 49.764C101.988 49.344 101.68 49.0173 101.288 48.784C100.896 48.5507 100.443 48.434 99.9295 48.434C99.4255 48.434 98.9728 48.5507 98.5715 48.784C98.1702 49.0173 97.8575 49.344 97.6335 49.764C97.4095 50.184 97.2975 50.6647 97.2975 51.206V51.36C97.2975 51.92 97.4188 52.4147 97.6615 52.844C97.9135 53.264 98.2588 53.5953 98.6975 53.838C99.1455 54.0713 99.6542 54.188 100.224 54.188C100.672 54.188 101.087 54.1087 101.47 53.95C101.862 53.7913 102.198 53.5487 102.478 53.222L103.038 53.866C102.711 54.258 102.3 54.5567 101.806 54.762C101.32 54.9673 100.784 55.07 100.196 55.07ZM109.475 47.58C110.072 47.58 110.595 47.6967 111.043 47.93C111.5 48.154 111.855 48.4993 112.107 48.966C112.368 49.4327 112.499 50.0207 112.499 50.73V55H111.505V50.828C111.505 50.0533 111.309 49.47 110.917 49.078C110.534 48.6767 109.993 48.476 109.293 48.476C108.77 48.476 108.313 48.5833 107.921 48.798C107.538 49.0033 107.239 49.3067 107.025 49.708C106.819 50.1 106.717 50.576 106.717 51.136V55H105.723V47.65H106.675V49.666L106.521 49.288C106.754 48.756 107.127 48.3407 107.641 48.042C108.154 47.734 108.765 47.58 109.475 47.58ZM118.436 55.07C117.708 55.07 117.054 54.9113 116.476 54.594C115.906 54.2673 115.458 53.824 115.132 53.264C114.805 52.6947 114.642 52.046 114.642 51.318C114.642 50.5807 114.805 49.932 115.132 49.372C115.458 48.812 115.906 48.3733 116.476 48.056C117.054 47.7387 117.708 47.58 118.436 47.58C119.061 47.58 119.626 47.7013 120.13 47.944C120.634 48.1867 121.03 48.5507 121.32 49.036L120.578 49.54C120.326 49.1667 120.013 48.8913 119.64 48.714C119.266 48.5367 118.86 48.448 118.422 48.448C117.899 48.448 117.428 48.5693 117.008 48.812C116.588 49.0453 116.256 49.3767 116.014 49.806C115.771 50.2353 115.65 50.7393 115.65 51.318C115.65 51.8967 115.771 52.4007 116.014 52.83C116.256 53.2593 116.588 53.5953 117.008 53.838C117.428 54.0713 117.899 54.188 118.422 54.188C118.86 54.188 119.266 54.0993 119.64 53.922C120.013 53.7447 120.326 53.474 120.578 53.11L121.32 53.614C121.03 54.09 120.634 54.454 120.13 54.706C119.626 54.9487 119.061 55.07 118.436 55.07ZM123.419 57.786C123.074 57.786 122.742 57.73 122.425 57.618C122.117 57.506 121.851 57.338 121.627 57.114L122.089 56.372C122.276 56.5493 122.476 56.6847 122.691 56.778C122.915 56.8807 123.162 56.932 123.433 56.932C123.76 56.932 124.04 56.8387 124.273 56.652C124.516 56.4747 124.744 56.1573 124.959 55.7L125.435 54.622L125.547 54.468L128.571 47.65H129.551L125.869 55.882C125.664 56.358 125.435 56.736 125.183 57.016C124.94 57.296 124.674 57.492 124.385 57.604C124.096 57.7253 123.774 57.786 123.419 57.786ZM125.379 55.21L121.991 47.65H123.027L126.023 54.398L125.379 55.21ZM135.225 55V45.2H138.893C139.724 45.2 140.438 45.3353 141.035 45.606C141.632 45.8673 142.09 46.25 142.407 46.754C142.734 47.2487 142.897 47.8507 142.897 48.56C142.897 49.2507 142.734 49.848 142.407 50.352C142.09 50.8467 141.632 51.2293 141.035 51.5C140.438 51.7613 139.724 51.892 138.893 51.892H135.799L136.261 51.416V55H135.225ZM141.917 55L139.397 51.444H140.517L143.051 55H141.917ZM136.261 51.5L135.799 51.01H138.865C139.845 51.01 140.587 50.7953 141.091 50.366C141.604 49.9367 141.861 49.3347 141.861 48.56C141.861 47.776 141.604 47.1693 141.091 46.74C140.587 46.3107 139.845 46.096 138.865 46.096H135.799L136.261 45.606V51.5ZM148.454 55.07C147.689 55.07 147.017 54.9113 146.438 54.594C145.859 54.2673 145.407 53.824 145.08 53.264C144.753 52.6947 144.59 52.046 144.59 51.318C144.59 50.59 144.744 49.946 145.052 49.386C145.369 48.826 145.799 48.3873 146.34 48.07C146.891 47.7433 147.507 47.58 148.188 47.58C148.879 47.58 149.49 47.7387 150.022 48.056C150.563 48.364 150.988 48.8027 151.296 49.372C151.604 49.932 151.758 50.5807 151.758 51.318C151.758 51.3647 151.753 51.416 151.744 51.472C151.744 51.5187 151.744 51.57 151.744 51.626H145.346V50.884H151.212L150.82 51.178C150.82 50.646 150.703 50.1747 150.47 49.764C150.246 49.344 149.938 49.0173 149.546 48.784C149.154 48.5507 148.701 48.434 148.188 48.434C147.684 48.434 147.231 48.5507 146.83 48.784C146.429 49.0173 146.116 49.344 145.892 49.764C145.668 50.184 145.556 50.6647 145.556 51.206V51.36C145.556 51.92 145.677 52.4147 145.92 52.844C146.172 53.264 146.517 53.5953 146.956 53.838C147.404 54.0713 147.913 54.188 148.482 54.188C148.93 54.188 149.345 54.1087 149.728 53.95C150.12 53.7913 150.456 53.5487 150.736 53.222L151.296 53.866C150.969 54.258 150.559 54.5567 150.064 54.762C149.579 54.9673 149.042 55.07 148.454 55.07ZM155.955 55.07C155.349 55.07 154.775 54.986 154.233 54.818C153.692 54.6407 153.267 54.4213 152.959 54.16L153.407 53.376C153.706 53.6 154.089 53.796 154.555 53.964C155.022 54.1227 155.512 54.202 156.025 54.202C156.725 54.202 157.229 54.0947 157.537 53.88C157.845 53.656 157.999 53.362 157.999 52.998C157.999 52.7273 157.911 52.5173 157.733 52.368C157.565 52.2093 157.341 52.0927 157.061 52.018C156.781 51.934 156.469 51.864 156.123 51.808C155.778 51.752 155.433 51.6867 155.087 51.612C154.751 51.5373 154.443 51.43 154.163 51.29C153.883 51.1407 153.655 50.94 153.477 50.688C153.309 50.436 153.225 50.1 153.225 49.68C153.225 49.2787 153.337 48.9193 153.561 48.602C153.785 48.2847 154.112 48.0373 154.541 47.86C154.98 47.6733 155.512 47.58 156.137 47.58C156.613 47.58 157.089 47.6453 157.565 47.776C158.041 47.8973 158.433 48.0607 158.741 48.266L158.307 49.064C157.981 48.84 157.631 48.6813 157.257 48.588C156.884 48.4853 156.511 48.434 156.137 48.434C155.475 48.434 154.985 48.5507 154.667 48.784C154.359 49.008 154.205 49.2973 154.205 49.652C154.205 49.932 154.289 50.1513 154.457 50.31C154.635 50.4687 154.863 50.5947 155.143 50.688C155.433 50.772 155.745 50.842 156.081 50.898C156.427 50.954 156.767 51.024 157.103 51.108C157.449 51.1827 157.761 51.29 158.041 51.43C158.331 51.5607 158.559 51.752 158.727 52.004C158.905 52.2467 158.993 52.5687 158.993 52.97C158.993 53.3993 158.872 53.7727 158.629 54.09C158.396 54.398 158.051 54.6407 157.593 54.818C157.145 54.986 156.599 55.07 155.955 55.07ZM164.811 55.07C164.177 55.07 163.603 54.9253 163.089 54.636C162.576 54.3373 162.165 53.9127 161.857 53.362C161.559 52.802 161.409 52.1207 161.409 51.318C161.409 50.5153 161.559 49.8387 161.857 49.288C162.156 48.728 162.562 48.3033 163.075 48.014C163.589 47.7247 164.167 47.58 164.811 47.58C165.511 47.58 166.137 47.7387 166.687 48.056C167.247 48.364 167.686 48.8027 168.003 49.372C168.321 49.932 168.479 50.5807 168.479 51.318C168.479 52.0647 168.321 52.718 168.003 53.278C167.686 53.838 167.247 54.2767 166.687 54.594C166.137 54.9113 165.511 55.07 164.811 55.07ZM161.017 57.716V47.65H161.969V49.862L161.871 51.332L162.011 52.816V57.716H161.017ZM164.741 54.188C165.264 54.188 165.731 54.0713 166.141 53.838C166.552 53.5953 166.879 53.2593 167.121 52.83C167.364 52.3913 167.485 51.8873 167.485 51.318C167.485 50.7487 167.364 50.2493 167.121 49.82C166.879 49.3907 166.552 49.0547 166.141 48.812C165.731 48.5693 165.264 48.448 164.741 48.448C164.219 48.448 163.747 48.5693 163.327 48.812C162.917 49.0547 162.59 49.3907 162.347 49.82C162.114 50.2493 161.997 50.7487 161.997 51.318C161.997 51.8873 162.114 52.3913 162.347 52.83C162.59 53.2593 162.917 53.5953 163.327 53.838C163.747 54.0713 164.219 54.188 164.741 54.188ZM173.702 55.07C172.992 55.07 172.353 54.9113 171.784 54.594C171.224 54.2673 170.78 53.824 170.454 53.264C170.127 52.6947 169.964 52.046 169.964 51.318C169.964 50.5807 170.127 49.932 170.454 49.372C170.78 48.812 171.224 48.3733 171.784 48.056C172.344 47.7387 172.983 47.58 173.702 47.58C174.43 47.58 175.074 47.7387 175.634 48.056C176.203 48.3733 176.646 48.812 176.964 49.372C177.29 49.932 177.454 50.5807 177.454 51.318C177.454 52.046 177.29 52.6947 176.964 53.264C176.646 53.824 176.203 54.2673 175.634 54.594C175.064 54.9113 174.42 55.07 173.702 55.07ZM173.702 54.188C174.234 54.188 174.705 54.0713 175.116 53.838C175.526 53.5953 175.848 53.2593 176.082 52.83C176.324 52.3913 176.446 51.8873 176.446 51.318C176.446 50.7393 176.324 50.2353 176.082 49.806C175.848 49.3767 175.526 49.0453 175.116 48.812C174.705 48.5693 174.238 48.448 173.716 48.448C173.193 48.448 172.726 48.5693 172.316 48.812C171.905 49.0453 171.578 49.3767 171.336 49.806C171.093 50.2353 170.972 50.7393 170.972 51.318C170.972 51.8873 171.093 52.3913 171.336 52.83C171.578 53.2593 171.905 53.5953 172.316 53.838C172.726 54.0713 173.188 54.188 173.702 54.188ZM183.435 47.58C184.032 47.58 184.555 47.6967 185.003 47.93C185.46 48.154 185.815 48.4993 186.067 48.966C186.328 49.4327 186.459 50.0207 186.459 50.73V55H185.465V50.828C185.465 50.0533 185.269 49.47 184.877 49.078C184.494 48.6767 183.953 48.476 183.253 48.476C182.73 48.476 182.273 48.5833 181.881 48.798C181.498 49.0033 181.2 49.3067 180.985 49.708C180.78 50.1 180.677 50.576 180.677 51.136V55H179.683V47.65H180.635V49.666L180.481 49.288C180.714 48.756 181.088 48.3407 181.601 48.042C182.114 47.734 182.726 47.58 183.435 47.58ZM191.318 55.07C190.711 55.07 190.137 54.986 189.596 54.818C189.054 54.6407 188.63 54.4213 188.322 54.16L188.77 53.376C189.068 53.6 189.451 53.796 189.918 53.964C190.384 54.1227 190.874 54.202 191.388 54.202C192.088 54.202 192.592 54.0947 192.9 53.88C193.208 53.656 193.362 53.362 193.362 52.998C193.362 52.7273 193.273 52.5173 193.096 52.368C192.928 52.2093 192.704 52.0927 192.424 52.018C192.144 51.934 191.831 51.864 191.486 51.808C191.14 51.752 190.795 51.6867 190.45 51.612C190.114 51.5373 189.806 51.43 189.526 51.29C189.246 51.1407 189.017 50.94 188.84 50.688C188.672 50.436 188.588 50.1 188.588 49.68C188.588 49.2787 188.7 48.9193 188.924 48.602C189.148 48.2847 189.474 48.0373 189.904 47.86C190.342 47.6733 190.874 47.58 191.5 47.58C191.976 47.58 192.452 47.6453 192.928 47.776C193.404 47.8973 193.796 48.0607 194.104 48.266L193.67 49.064C193.343 48.84 192.993 48.6813 192.62 48.588C192.246 48.4853 191.873 48.434 191.5 48.434C190.837 48.434 190.347 48.5507 190.03 48.784C189.722 49.008 189.568 49.2973 189.568 49.652C189.568 49.932 189.652 50.1513 189.82 50.31C189.997 50.4687 190.226 50.5947 190.506 50.688C190.795 50.772 191.108 50.842 191.444 50.898C191.789 50.954 192.13 51.024 192.466 51.108C192.811 51.1827 193.124 51.29 193.404 51.43C193.693 51.5607 193.922 51.752 194.09 52.004C194.267 52.2467 194.356 52.5687 194.356 52.97C194.356 53.3993 194.234 53.7727 193.992 54.09C193.758 54.398 193.413 54.6407 192.956 54.818C192.508 54.986 191.962 55.07 191.318 55.07ZM199.502 55.07C198.736 55.07 198.064 54.9113 197.486 54.594C196.907 54.2673 196.454 53.824 196.128 53.264C195.801 52.6947 195.638 52.046 195.638 51.318C195.638 50.59 195.792 49.946 196.1 49.386C196.417 48.826 196.846 48.3873 197.388 48.07C197.938 47.7433 198.554 47.58 199.236 47.58C199.926 47.58 200.538 47.7387 201.07 48.056C201.611 48.364 202.036 48.8027 202.344 49.372C202.652 49.932 202.806 50.5807 202.806 51.318C202.806 51.3647 202.801 51.416 202.792 51.472C202.792 51.5187 202.792 51.57 202.792 51.626H196.394V50.884H202.26L201.868 51.178C201.868 50.646 201.751 50.1747 201.518 49.764C201.294 49.344 200.986 49.0173 200.594 48.784C200.202 48.5507 199.749 48.434 199.236 48.434C198.732 48.434 198.279 48.5507 197.878 48.784C197.476 49.0173 197.164 49.344 196.94 49.764C196.716 50.184 196.604 50.6647 196.604 51.206V51.36C196.604 51.92 196.725 52.4147 196.968 52.844C197.22 53.264 197.565 53.5953 198.004 53.838C198.452 54.0713 198.96 54.188 199.53 54.188C199.978 54.188 200.393 54.1087 200.776 53.95C201.168 53.7913 201.504 53.5487 201.784 53.222L202.344 53.866C202.017 54.258 201.606 54.5567 201.112 54.762C200.626 54.9673 200.09 55.07 199.502 55.07ZM209.103 55V45.2H209.957L216.719 53.712H216.271V45.2H217.293V55H216.439L209.691 46.488H210.139V55H209.103ZM225.088 55V53.376L225.046 53.11V50.394C225.046 49.7687 224.868 49.288 224.514 48.952C224.168 48.616 223.65 48.448 222.96 48.448C222.484 48.448 222.031 48.5273 221.602 48.686C221.172 48.8447 220.808 49.0547 220.51 49.316L220.062 48.574C220.435 48.2567 220.883 48.014 221.406 47.846C221.928 47.6687 222.479 47.58 223.058 47.58C224.01 47.58 224.742 47.818 225.256 48.294C225.778 48.7607 226.04 49.4747 226.04 50.436V55H225.088ZM222.554 55.07C222.003 55.07 221.522 54.9813 221.112 54.804C220.71 54.6173 220.402 54.3653 220.188 54.048C219.973 53.7213 219.866 53.348 219.866 52.928C219.866 52.5453 219.954 52.2 220.132 51.892C220.318 51.5747 220.617 51.3227 221.028 51.136C221.448 50.94 222.008 50.842 222.708 50.842H225.242V51.584H222.736C222.026 51.584 221.532 51.71 221.252 51.962C220.981 52.214 220.846 52.5267 220.846 52.9C220.846 53.32 221.009 53.656 221.336 53.908C221.662 54.16 222.12 54.286 222.708 54.286C223.268 54.286 223.748 54.16 224.15 53.908C224.56 53.6467 224.859 53.2733 225.046 52.788L225.27 53.474C225.083 53.9593 224.756 54.3467 224.29 54.636C223.832 54.9253 223.254 55.07 222.554 55.07ZM230.693 55L227.431 47.65H228.467L231.463 54.468H230.973L234.011 47.65H234.991L231.715 55H230.693ZM236.591 55V47.65H237.585V55H236.591ZM237.095 46.026C236.889 46.026 236.717 45.956 236.577 45.816C236.437 45.676 236.367 45.508 236.367 45.312C236.367 45.116 236.437 44.9527 236.577 44.822C236.717 44.682 236.889 44.612 237.095 44.612C237.3 44.612 237.473 44.6773 237.613 44.808C237.753 44.9387 237.823 45.102 237.823 45.298C237.823 45.5033 237.753 45.676 237.613 45.816C237.482 45.956 237.309 46.026 237.095 46.026ZM243.686 57.786C243.014 57.786 242.37 57.688 241.754 57.492C241.138 57.296 240.639 57.016 240.256 56.652L240.76 55.896C241.106 56.204 241.53 56.4467 242.034 56.624C242.548 56.8107 243.089 56.904 243.658 56.904C244.592 56.904 245.278 56.6847 245.716 56.246C246.155 55.8167 246.374 55.1447 246.374 54.23V52.396L246.514 51.136L246.416 49.876V47.65H247.368V54.104C247.368 55.3733 247.056 56.302 246.43 56.89C245.814 57.4873 244.9 57.786 243.686 57.786ZM243.504 54.72C242.804 54.72 242.174 54.5707 241.614 54.272C241.054 53.964 240.611 53.5393 240.284 52.998C239.967 52.4567 239.808 51.836 239.808 51.136C239.808 50.436 239.967 49.82 240.284 49.288C240.611 48.7467 241.054 48.3267 241.614 48.028C242.174 47.7293 242.804 47.58 243.504 47.58C244.158 47.58 244.746 47.7153 245.268 47.986C245.791 48.2567 246.206 48.658 246.514 49.19C246.822 49.722 246.976 50.3707 246.976 51.136C246.976 51.9013 246.822 52.55 246.514 53.082C246.206 53.614 245.791 54.02 245.268 54.3C244.746 54.58 244.158 54.72 243.504 54.72ZM243.602 53.838C244.144 53.838 244.624 53.726 245.044 53.502C245.464 53.2687 245.796 52.9513 246.038 52.55C246.281 52.1393 246.402 51.668 246.402 51.136C246.402 50.604 246.281 50.1373 246.038 49.736C245.796 49.3347 245.464 49.022 245.044 48.798C244.624 48.5647 244.144 48.448 243.602 48.448C243.07 48.448 242.59 48.5647 242.16 48.798C241.74 49.022 241.409 49.3347 241.166 49.736C240.933 50.1373 240.816 50.604 240.816 51.136C240.816 51.668 240.933 52.1393 241.166 52.55C241.409 52.9513 241.74 53.2687 242.16 53.502C242.59 53.726 243.07 53.838 243.602 53.838ZM254.94 55V53.376L254.898 53.11V50.394C254.898 49.7687 254.721 49.288 254.366 48.952C254.021 48.616 253.503 48.448 252.812 48.448C252.336 48.448 251.884 48.5273 251.454 48.686C251.025 48.8447 250.661 49.0547 250.362 49.316L249.914 48.574C250.288 48.2567 250.736 48.014 251.258 47.846C251.781 47.6687 252.332 47.58 252.91 47.58C253.862 47.58 254.595 47.818 255.108 48.294C255.631 48.7607 255.892 49.4747 255.892 50.436V55H254.94ZM252.406 55.07C251.856 55.07 251.375 54.9813 250.964 54.804C250.563 54.6173 250.255 54.3653 250.04 54.048C249.826 53.7213 249.718 53.348 249.718 52.928C249.718 52.5453 249.807 52.2 249.984 51.892C250.171 51.5747 250.47 51.3227 250.88 51.136C251.3 50.94 251.86 50.842 252.56 50.842H255.094V51.584H252.588C251.879 51.584 251.384 51.71 251.104 51.962C250.834 52.214 250.698 52.5267 250.698 52.9C250.698 53.32 250.862 53.656 251.188 53.908C251.515 54.16 251.972 54.286 252.56 54.286C253.12 54.286 253.601 54.16 254.002 53.908C254.413 53.6467 254.712 53.2733 254.898 52.788L255.122 53.474C254.936 53.9593 254.609 54.3467 254.142 54.636C253.685 54.9253 253.106 55.07 252.406 55.07ZM261.116 55.07C260.426 55.07 259.894 54.8833 259.52 54.51C259.147 54.1367 258.96 53.6093 258.96 52.928V46.026H259.954V52.872C259.954 53.3013 260.062 53.6327 260.276 53.866C260.5 54.0993 260.818 54.216 261.228 54.216C261.667 54.216 262.031 54.09 262.32 53.838L262.67 54.552C262.474 54.7293 262.236 54.86 261.956 54.944C261.686 55.028 261.406 55.07 261.116 55.07ZM257.644 48.476V47.65H262.194V48.476H257.644ZM267.416 55.07C266.707 55.07 266.067 54.9113 265.498 54.594C264.938 54.2673 264.495 53.824 264.168 53.264C263.841 52.6947 263.678 52.046 263.678 51.318C263.678 50.5807 263.841 49.932 264.168 49.372C264.495 48.812 264.938 48.3733 265.498 48.056C266.058 47.7387 266.697 47.58 267.416 47.58C268.144 47.58 268.788 47.7387 269.348 48.056C269.917 48.3733 270.361 48.812 270.678 49.372C271.005 49.932 271.168 50.5807 271.168 51.318C271.168 52.046 271.005 52.6947 270.678 53.264C270.361 53.824 269.917 54.2673 269.348 54.594C268.779 54.9113 268.135 55.07 267.416 55.07ZM267.416 54.188C267.948 54.188 268.419 54.0713 268.83 53.838C269.241 53.5953 269.563 53.2593 269.796 52.83C270.039 52.3913 270.16 51.8873 270.16 51.318C270.16 50.7393 270.039 50.2353 269.796 49.806C269.563 49.3767 269.241 49.0453 268.83 48.812C268.419 48.5693 267.953 48.448 267.43 48.448C266.907 48.448 266.441 48.5693 266.03 48.812C265.619 49.0453 265.293 49.3767 265.05 49.806C264.807 50.2353 264.686 50.7393 264.686 51.318C264.686 51.8873 264.807 52.3913 265.05 52.83C265.293 53.2593 265.619 53.5953 266.03 53.838C266.441 54.0713 266.903 54.188 267.416 54.188ZM273.397 55V47.65H274.349V49.652L274.251 49.302C274.457 48.742 274.802 48.3173 275.287 48.028C275.773 47.7293 276.375 47.58 277.093 47.58V48.546C277.056 48.546 277.019 48.546 276.981 48.546C276.944 48.5367 276.907 48.532 276.869 48.532C276.095 48.532 275.488 48.77 275.049 49.246C274.611 49.7127 274.391 50.38 274.391 51.248V55H273.397Z" fill="#252B42"/>
<defs>
<linearGradient id="paint0_linear_2108_3" x1="19.0247" y1="40.8891" x2="35.6272" y2="15.6541" gradientUnits="userSpaceOnUse">
<stop stop-color="#FFD7A9"/>
<stop offset="1" stop-color="#FFAE70"/>
</linearGradient>
<linearGradient id="paint1_linear_2108_3" x1="24.7763" y1="48.9756" x2="51.3309" y2="22.6973" gradientUnits="userSpaceOnUse">
<stop stop-color="#CD10FF"/>
<stop offset="1" stop-color="#9F06FF"/>
</linearGradient>
</defs>
</svg>
