<svg width="251" height="48" viewBox="0 0 251 48" fill="none" xmlns="http://www.w3.org/2000/svg">
<path d="M46.5478 38.1886H51.1507V38.9723H46.5478V38.1886ZM46.6473 42.2068H51.8846V43.0029H45.7268V34.2948H51.698V35.091H46.6473V42.2068ZM62.2004 36.4096C62.7312 36.4096 63.1915 36.5133 63.5813 36.7207C63.9793 36.9197 64.2862 37.2266 64.5018 37.6412C64.7258 38.0559 64.8377 38.5784 64.8377 39.2087V43.0029H63.9545V39.2958C63.9545 38.6074 63.7886 38.0891 63.4569 37.7407C63.1334 37.3841 62.6731 37.2058 62.076 37.2058C61.6282 37.2058 61.2384 37.3012 60.9066 37.4919C60.5832 37.6744 60.3302 37.9439 60.1478 38.3006C59.9736 38.6489 59.8865 39.0718 59.8865 39.5694V43.0029H59.0033V39.2958C59.0033 38.6074 58.8374 38.0891 58.5057 37.7407C58.1739 37.3841 57.7095 37.2058 57.1124 37.2058C56.6728 37.2058 56.2872 37.3012 55.9554 37.4919C55.6237 37.6744 55.3666 37.9439 55.1842 38.3006C55.01 38.6489 54.9229 39.0718 54.9229 39.5694V43.0029H54.0397V36.4718H54.8856V38.2384L54.7488 37.9273C54.9478 37.4546 55.2671 37.0856 55.7066 36.8202C56.1545 36.5465 56.6811 36.4096 57.2865 36.4096C57.9251 36.4096 58.4684 36.5714 58.9162 36.8948C59.3641 37.21 59.6543 37.6868 59.787 38.3254L59.4387 38.1886C59.6294 37.6578 59.9653 37.2307 60.4463 36.9073C60.9357 36.5755 61.5203 36.4096 62.2004 36.4096ZM70.1849 43.0651C69.5048 43.0651 68.9077 42.9241 68.3935 42.6422C67.8793 42.3519 67.4771 41.958 67.1868 41.4604C66.8966 40.9545 66.7514 40.3781 66.7514 39.7312C66.7514 39.0843 66.8883 38.512 67.1619 38.0144C67.4439 37.5168 67.8254 37.127 68.3064 36.8451C68.7957 36.5548 69.3431 36.4096 69.9485 36.4096C70.5623 36.4096 71.1055 36.5506 71.5782 36.8326C72.0592 37.1063 72.4366 37.4961 72.7103 38.002C72.9839 38.4996 73.1208 39.076 73.1208 39.7312C73.1208 39.7726 73.1166 39.8183 73.1083 39.868C73.1083 39.9095 73.1083 39.9551 73.1083 40.0049H67.4232V39.3455H72.6356L72.2873 39.6068C72.2873 39.134 72.1836 38.7152 71.9763 38.3503C71.7772 37.9771 71.5036 37.6868 71.1552 37.4795C70.8069 37.2722 70.4047 37.1685 69.9485 37.1685C69.5007 37.1685 69.0985 37.2722 68.7418 37.4795C68.3852 37.6868 68.1074 37.9771 67.9084 38.3503C67.7093 38.7235 67.6098 39.1506 67.6098 39.6316V39.7685C67.6098 40.2661 67.7176 40.7056 67.9332 41.0871C68.1572 41.4604 68.464 41.7548 68.8538 41.9704C69.2519 42.1777 69.7039 42.2814 70.2098 42.2814C70.6079 42.2814 70.9769 42.2109 71.317 42.0699C71.6653 41.9289 71.9638 41.7133 72.2126 41.423L72.7103 41.9953C72.42 42.3436 72.0551 42.609 71.6155 42.7914C71.1843 42.9739 70.7074 43.0651 70.1849 43.0651ZM75.0963 43.0029V36.4718H75.9422V38.2508L75.8551 37.9398C76.0376 37.4422 76.3445 37.0648 76.7757 36.8077C77.207 36.5423 77.7419 36.4096 78.3805 36.4096V37.268C78.3473 37.268 78.3141 37.268 78.281 37.268C78.2478 37.2597 78.2146 37.2556 78.1814 37.2556C77.4931 37.2556 76.954 37.4671 76.5642 37.89C76.1744 38.3047 75.9795 38.8977 75.9795 39.669V43.0029H75.0963ZM82.8957 45.4785C82.2986 45.4785 81.7264 45.3914 81.179 45.2173C80.6316 45.0431 80.1879 44.7943 79.8479 44.4709L80.2957 43.7991C80.6026 44.0728 80.98 44.2884 81.4278 44.446C81.8839 44.6119 82.365 44.6948 82.8709 44.6948C83.7002 44.6948 84.3098 44.4999 84.6996 44.1101C85.0893 43.7286 85.2842 43.1315 85.2842 42.3187V40.6891L85.4086 39.5694L85.3216 38.4498V36.4718H86.1675V42.2068C86.1675 43.3347 85.8897 44.1599 85.334 44.6824C84.7866 45.2131 83.9739 45.4785 82.8957 45.4785ZM82.734 42.7541C82.112 42.7541 81.5522 42.6214 81.0546 42.356C80.557 42.0824 80.163 41.705 79.8728 41.224C79.5908 40.743 79.4498 40.1915 79.4498 39.5694C79.4498 38.9474 79.5908 38.4001 79.8728 37.9273C80.163 37.4463 80.557 37.0731 81.0546 36.8077C81.5522 36.5423 82.112 36.4096 82.734 36.4096C83.3146 36.4096 83.837 36.5299 84.3015 36.7704C84.7659 37.0109 85.135 37.3675 85.4086 37.8403C85.6823 38.313 85.8192 38.8894 85.8192 39.5694C85.8192 40.2495 85.6823 40.8259 85.4086 41.2986C85.135 41.7714 84.7659 42.1321 84.3015 42.3809C83.837 42.6297 83.3146 42.7541 82.734 42.7541ZM82.8211 41.9704C83.3021 41.9704 83.7292 41.8709 84.1024 41.6718C84.4756 41.4645 84.7701 41.1825 84.9857 40.8259C85.2013 40.461 85.3091 40.0422 85.3091 39.5694C85.3091 39.0967 85.2013 38.6821 84.9857 38.3254C84.7701 37.9688 84.4756 37.691 84.1024 37.4919C83.7292 37.2846 83.3021 37.1809 82.8211 37.1809C82.3484 37.1809 81.9213 37.2846 81.5398 37.4919C81.1666 37.691 80.8721 37.9688 80.6565 38.3254C80.4492 38.6821 80.3455 39.0967 80.3455 39.5694C80.3455 40.0422 80.4492 40.461 80.6565 40.8259C80.8721 41.1825 81.1666 41.4645 81.5398 41.6718C81.9213 41.8709 82.3484 41.9704 82.8211 41.9704ZM91.5772 43.0651C90.8971 43.0651 90.3 42.9241 89.7858 42.6422C89.2716 42.3519 88.8694 41.958 88.5791 41.4604C88.2888 40.9545 88.1437 40.3781 88.1437 39.7312C88.1437 39.0843 88.2805 38.512 88.5542 38.0144C88.8362 37.5168 89.2177 37.127 89.6987 36.8451C90.188 36.5548 90.7354 36.4096 91.3408 36.4096C91.9545 36.4096 92.4977 36.5506 92.9705 36.8326C93.4515 37.1063 93.8288 37.4961 94.1025 38.002C94.3762 38.4996 94.513 39.076 94.513 39.7312C94.513 39.7726 94.5089 39.8183 94.5006 39.868C94.5006 39.9095 94.5006 39.9551 94.5006 40.0049H88.8155V39.3455H94.0279L93.6796 39.6068C93.6796 39.134 93.5759 38.7152 93.3686 38.3503C93.1695 37.9771 92.8958 37.6868 92.5475 37.4795C92.1992 37.2722 91.7969 37.1685 91.3408 37.1685C90.893 37.1685 90.4907 37.2722 90.1341 37.4795C89.7775 37.6868 89.4997 37.9771 89.3006 38.3503C89.1016 38.7235 89.0021 39.1506 89.0021 39.6316V39.7685C89.0021 40.2661 89.1099 40.7056 89.3255 41.0871C89.5494 41.4604 89.8563 41.7548 90.2461 41.9704C90.6442 42.1777 91.0962 42.2814 91.6021 42.2814C92.0001 42.2814 92.3692 42.2109 92.7092 42.0699C93.0575 41.9289 93.3561 41.7133 93.6049 41.423L94.1025 41.9953C93.8123 42.3436 93.4473 42.609 93.0078 42.7914C92.5765 42.9739 92.0997 43.0651 91.5772 43.0651ZM99.8225 36.4096C100.353 36.4096 100.818 36.5133 101.216 36.7207C101.622 36.9197 101.937 37.2266 102.161 37.6412C102.393 38.0559 102.51 38.5784 102.51 39.2087V43.0029H101.626V39.2958C101.626 38.6074 101.452 38.0891 101.104 37.7407C100.764 37.3841 100.283 37.2058 99.6608 37.2058C99.1964 37.2058 98.79 37.3012 98.4417 37.4919C98.1016 37.6744 97.8362 37.9439 97.6455 38.3006C97.463 38.6489 97.3718 39.0718 97.3718 39.5694V43.0029H96.4886V36.4718H97.3345V38.2632L97.1976 37.9273C97.405 37.4546 97.7367 37.0856 98.1929 36.8202C98.649 36.5465 99.1922 36.4096 99.8225 36.4096ZM107.785 43.0651C107.138 43.0651 106.558 42.9241 106.043 42.6422C105.538 42.3519 105.139 41.958 104.849 41.4604C104.559 40.9545 104.414 40.3781 104.414 39.7312C104.414 39.076 104.559 38.4996 104.849 38.002C105.139 37.5044 105.538 37.1146 106.043 36.8326C106.558 36.5506 107.138 36.4096 107.785 36.4096C108.341 36.4096 108.842 36.5175 109.29 36.7331C109.738 36.9487 110.091 37.2722 110.348 37.7034L109.688 38.1513C109.464 37.8195 109.187 37.5749 108.855 37.4173C108.523 37.2597 108.162 37.1809 107.773 37.1809C107.308 37.1809 106.889 37.2888 106.516 37.5044C106.143 37.7117 105.849 38.0061 105.633 38.3876C105.417 38.7691 105.309 39.217 105.309 39.7312C105.309 40.2454 105.417 40.6932 105.633 41.0747C105.849 41.4562 106.143 41.7548 106.516 41.9704C106.889 42.1777 107.308 42.2814 107.773 42.2814C108.162 42.2814 108.523 42.2026 108.855 42.045C109.187 41.8875 109.464 41.647 109.688 41.3235L110.348 41.7714C110.091 42.1943 109.738 42.5178 109.29 42.7417C108.842 42.9573 108.341 43.0651 107.785 43.0651ZM112.213 45.4785C111.906 45.4785 111.612 45.4288 111.33 45.3292C111.056 45.2297 110.82 45.0804 110.621 44.8814L111.031 44.2221C111.197 44.3796 111.375 44.4999 111.566 44.5828C111.765 44.6741 111.985 44.7197 112.226 44.7197C112.516 44.7197 112.765 44.6367 112.972 44.4709C113.188 44.3133 113.391 44.0313 113.582 43.6249L114.005 42.667L114.104 42.5302L116.791 36.4718H117.662L114.39 43.7867C114.208 44.2096 114.005 44.5455 113.781 44.7943C113.565 45.0431 113.329 45.2173 113.071 45.3168C112.814 45.4246 112.528 45.4785 112.213 45.4785ZM113.955 43.1895L110.944 36.4718H111.865L114.527 42.468L113.955 43.1895ZM122.704 43.0029V34.2948H125.963C126.701 34.2948 127.336 34.4151 127.866 34.6556C128.397 34.8878 128.803 35.2278 129.085 35.6757C129.376 36.1152 129.521 36.6502 129.521 37.2805C129.521 37.8942 129.376 38.425 129.085 38.8728C128.803 39.3124 128.397 39.6524 127.866 39.8929C127.336 40.1251 126.701 40.2412 125.963 40.2412H123.214L123.624 39.8183V43.0029H122.704ZM128.65 43.0029L126.411 39.8431H127.406L129.658 43.0029H128.65ZM123.624 39.8929L123.214 39.4575H125.938C126.809 39.4575 127.468 39.2667 127.916 38.8852C128.372 38.5037 128.6 37.9688 128.6 37.2805C128.6 36.5838 128.372 36.0447 127.916 35.6632C127.468 35.2817 126.809 35.091 125.938 35.091H123.214L123.624 34.6556V39.8929ZM134.459 43.0651C133.779 43.0651 133.182 42.9241 132.668 42.6422C132.153 42.3519 131.751 41.958 131.461 41.4604C131.171 40.9545 131.025 40.3781 131.025 39.7312C131.025 39.0843 131.162 38.512 131.436 38.0144C131.718 37.5168 132.099 37.127 132.58 36.8451C133.07 36.5548 133.617 36.4096 134.223 36.4096C134.836 36.4096 135.379 36.5506 135.852 36.8326C136.333 37.1063 136.711 37.4961 136.984 38.002C137.258 38.4996 137.395 39.076 137.395 39.7312C137.395 39.7726 137.391 39.8183 137.382 39.868C137.382 39.9095 137.382 39.9551 137.382 40.0049H131.697V39.3455H136.91L136.561 39.6068C136.561 39.134 136.458 38.7152 136.25 38.3503C136.051 37.9771 135.778 37.6868 135.429 37.4795C135.081 37.2722 134.679 37.1685 134.223 37.1685C133.775 37.1685 133.372 37.2722 133.016 37.4795C132.659 37.6868 132.381 37.9771 132.182 38.3503C131.983 38.7235 131.884 39.1506 131.884 39.6316V39.7685C131.884 40.2661 131.992 40.7056 132.207 41.0871C132.431 41.4604 132.738 41.7548 133.128 41.9704C133.526 42.1777 133.978 42.2814 134.484 42.2814C134.882 42.2814 135.251 42.2109 135.591 42.0699C135.939 41.9289 136.238 41.7133 136.487 41.423L136.984 41.9953C136.694 42.3436 136.329 42.609 135.89 42.7914C135.458 42.9739 134.981 43.0651 134.459 43.0651ZM141.124 43.0651C140.585 43.0651 140.075 42.9905 139.594 42.8412C139.113 42.6836 138.736 42.4887 138.462 42.2565L138.86 41.5599C139.126 41.7589 139.466 41.9331 139.88 42.0824C140.295 42.2233 140.73 42.2938 141.187 42.2938C141.809 42.2938 142.256 42.1985 142.53 42.0077C142.804 41.8087 142.941 41.5474 142.941 41.224C142.941 40.9835 142.862 40.7969 142.704 40.6642C142.555 40.5232 142.356 40.4195 142.107 40.3532C141.858 40.2785 141.58 40.2163 141.274 40.1666C140.967 40.1168 140.66 40.0588 140.353 39.9924C140.054 39.9261 139.781 39.8307 139.532 39.7063C139.283 39.5736 139.08 39.3953 138.922 39.1714C138.773 38.9474 138.699 38.6489 138.699 38.2757C138.699 37.9191 138.798 37.5998 138.997 37.3178C139.196 37.0358 139.486 36.816 139.868 36.6585C140.258 36.4926 140.73 36.4096 141.286 36.4096C141.709 36.4096 142.132 36.4677 142.555 36.5838C142.978 36.6916 143.326 36.8368 143.6 37.0192L143.214 37.7283C142.924 37.5293 142.613 37.3883 142.281 37.3053C141.95 37.2141 141.618 37.1685 141.286 37.1685C140.697 37.1685 140.262 37.2722 139.98 37.4795C139.706 37.6785 139.569 37.9356 139.569 38.2508C139.569 38.4996 139.644 38.6945 139.793 38.8355C139.951 38.9765 140.154 39.0884 140.403 39.1714C140.66 39.246 140.938 39.3082 141.236 39.358C141.543 39.4077 141.846 39.4699 142.144 39.5446C142.451 39.6109 142.729 39.7063 142.978 39.8307C143.235 39.9468 143.438 40.1168 143.587 40.3407C143.745 40.5564 143.824 40.8425 143.824 41.1991C143.824 41.5806 143.716 41.9123 143.5 42.1943C143.293 42.468 142.986 42.6836 142.58 42.8412C142.182 42.9905 141.697 43.0651 141.124 43.0651ZM148.994 43.0651C148.43 43.0651 147.92 42.9366 147.463 42.6795C147.007 42.4141 146.642 42.0367 146.369 41.5474C146.103 41.0498 145.971 40.4444 145.971 39.7312C145.971 39.0179 146.103 38.4167 146.369 37.9273C146.634 37.4297 146.995 37.0524 147.451 36.7953C147.907 36.5382 148.421 36.4096 148.994 36.4096C149.616 36.4096 150.171 36.5506 150.661 36.8326C151.158 37.1063 151.548 37.4961 151.83 38.002C152.112 38.4996 152.253 39.076 152.253 39.7312C152.253 40.3946 152.112 40.9752 151.83 41.4728C151.548 41.9704 151.158 42.3602 150.661 42.6422C150.171 42.9241 149.616 43.0651 148.994 43.0651ZM145.622 45.4163V36.4718H146.468V38.4374L146.381 39.7436L146.506 41.0623V45.4163H145.622ZM148.931 42.2814C149.396 42.2814 149.81 42.1777 150.175 41.9704C150.54 41.7548 150.831 41.4562 151.046 41.0747C151.262 40.6849 151.37 40.2371 151.37 39.7312C151.37 39.2253 151.262 38.7816 151.046 38.4001C150.831 38.0186 150.54 37.72 150.175 37.5044C149.81 37.2888 149.396 37.1809 148.931 37.1809C148.467 37.1809 148.048 37.2888 147.675 37.5044C147.31 37.72 147.02 38.0186 146.804 38.4001C146.597 38.7816 146.493 39.2253 146.493 39.7312C146.493 40.2371 146.597 40.6849 146.804 41.0747C147.02 41.4562 147.31 41.7548 147.675 41.9704C148.048 42.1777 148.467 42.2814 148.931 42.2814ZM156.893 43.0651C156.263 43.0651 155.695 42.9241 155.189 42.6422C154.691 42.3519 154.297 41.958 154.007 41.4604C153.717 40.9545 153.572 40.3781 153.572 39.7312C153.572 39.076 153.717 38.4996 154.007 38.002C154.297 37.5044 154.691 37.1146 155.189 36.8326C155.687 36.5506 156.255 36.4096 156.893 36.4096C157.54 36.4096 158.112 36.5506 158.61 36.8326C159.116 37.1146 159.51 37.5044 159.792 38.002C160.082 38.4996 160.227 39.076 160.227 39.7312C160.227 40.3781 160.082 40.9545 159.792 41.4604C159.51 41.958 159.116 42.3519 158.61 42.6422C158.104 42.9241 157.532 43.0651 156.893 43.0651ZM156.893 42.2814C157.366 42.2814 157.785 42.1777 158.15 41.9704C158.515 41.7548 158.801 41.4562 159.008 41.0747C159.224 40.6849 159.332 40.2371 159.332 39.7312C159.332 39.217 159.224 38.7691 159.008 38.3876C158.801 38.0061 158.515 37.7117 158.15 37.5044C157.785 37.2888 157.37 37.1809 156.906 37.1809C156.441 37.1809 156.027 37.2888 155.662 37.5044C155.297 37.7117 155.007 38.0061 154.791 38.3876C154.575 38.7691 154.467 39.217 154.467 39.7312C154.467 40.2371 154.575 40.6849 154.791 41.0747C155.007 41.4562 155.297 41.7548 155.662 41.9704C156.027 42.1777 156.437 42.2814 156.893 42.2814ZM165.542 36.4096C166.073 36.4096 166.537 36.5133 166.935 36.7207C167.342 36.9197 167.657 37.2266 167.881 37.6412C168.113 38.0559 168.229 38.5784 168.229 39.2087V43.0029H167.346V39.2958C167.346 38.6074 167.172 38.0891 166.824 37.7407C166.484 37.3841 166.002 37.2058 165.38 37.2058C164.916 37.2058 164.51 37.3012 164.161 37.4919C163.821 37.6744 163.556 37.9439 163.365 38.3006C163.183 38.6489 163.091 39.0718 163.091 39.5694V43.0029H162.208V36.4718H163.054V38.2632L162.917 37.9273C163.125 37.4546 163.456 37.0856 163.913 36.8202C164.369 36.5465 164.912 36.4096 165.542 36.4096ZM172.547 43.0651C172.008 43.0651 171.498 42.9905 171.017 42.8412C170.536 42.6836 170.158 42.4887 169.885 42.2565L170.283 41.5599C170.548 41.7589 170.888 41.9331 171.303 42.0824C171.717 42.2233 172.153 42.2938 172.609 42.2938C173.231 42.2938 173.679 42.1985 173.953 42.0077C174.226 41.8087 174.363 41.5474 174.363 41.224C174.363 40.9835 174.284 40.7969 174.127 40.6642C173.977 40.5232 173.778 40.4195 173.53 40.3532C173.281 40.2785 173.003 40.2163 172.696 40.1666C172.389 40.1168 172.082 40.0588 171.776 39.9924C171.477 39.9261 171.203 39.8307 170.954 39.7063C170.706 39.5736 170.503 39.3953 170.345 39.1714C170.196 38.9474 170.121 38.6489 170.121 38.2757C170.121 37.9191 170.221 37.5998 170.42 37.3178C170.619 37.0358 170.909 36.816 171.29 36.6585C171.68 36.4926 172.153 36.4096 172.709 36.4096C173.132 36.4096 173.554 36.4677 173.977 36.5838C174.4 36.6916 174.749 36.8368 175.022 37.0192L174.637 37.7283C174.347 37.5293 174.036 37.3883 173.704 37.3053C173.372 37.2141 173.04 37.1685 172.709 37.1685C172.12 37.1685 171.684 37.2722 171.402 37.4795C171.129 37.6785 170.992 37.9356 170.992 38.2508C170.992 38.4996 171.066 38.6945 171.216 38.8355C171.373 38.9765 171.577 39.0884 171.825 39.1714C172.082 39.246 172.36 39.3082 172.659 39.358C172.966 39.4077 173.268 39.4699 173.567 39.5446C173.874 39.6109 174.152 39.7063 174.4 39.8307C174.658 39.9468 174.861 40.1168 175.01 40.3407C175.168 40.5564 175.246 40.8425 175.246 41.1991C175.246 41.5806 175.139 41.9123 174.923 42.1943C174.716 42.468 174.409 42.6836 174.002 42.8412C173.604 42.9905 173.119 43.0651 172.547 43.0651ZM179.819 43.0651C179.139 43.0651 178.542 42.9241 178.028 42.6422C177.513 42.3519 177.111 41.958 176.821 41.4604C176.531 40.9545 176.385 40.3781 176.385 39.7312C176.385 39.0843 176.522 38.512 176.796 38.0144C177.078 37.5168 177.459 37.127 177.94 36.8451C178.43 36.5548 178.977 36.4096 179.583 36.4096C180.196 36.4096 180.74 36.5506 181.212 36.8326C181.693 37.1063 182.071 37.4961 182.344 38.002C182.618 38.4996 182.755 39.076 182.755 39.7312C182.755 39.7726 182.751 39.8183 182.742 39.868C182.742 39.9095 182.742 39.9551 182.742 40.0049H177.057V39.3455H182.27L181.921 39.6068C181.921 39.134 181.818 38.7152 181.61 38.3503C181.411 37.9771 181.138 37.6868 180.789 37.4795C180.441 37.2722 180.039 37.1685 179.583 37.1685C179.135 37.1685 178.733 37.2722 178.376 37.4795C178.019 37.6868 177.741 37.9771 177.542 38.3503C177.343 38.7235 177.244 39.1506 177.244 39.6316V39.7685C177.244 40.2661 177.352 40.7056 177.567 41.0871C177.791 41.4604 178.098 41.7548 178.488 41.9704C178.886 42.1777 179.338 42.2814 179.844 42.2814C180.242 42.2814 180.611 42.2109 180.951 42.0699C181.299 41.9289 181.598 41.7133 181.847 41.423L182.344 41.9953C182.054 42.3436 181.689 42.609 181.25 42.7914C180.818 42.9739 180.341 43.0651 179.819 43.0651ZM188.35 43.0029V34.2948H189.109L195.118 41.8584H194.72V34.2948H195.628V43.0029H194.869L188.873 35.4393H189.271V43.0029H188.35ZM202.554 43.0029V41.5599L202.517 41.3235V38.9101C202.517 38.3545 202.359 37.9273 202.044 37.6288C201.737 37.3302 201.277 37.1809 200.663 37.1809C200.24 37.1809 199.838 37.2514 199.457 37.3924C199.075 37.5334 198.752 37.72 198.486 37.9522L198.088 37.2929C198.42 37.0109 198.818 36.7953 199.282 36.646C199.747 36.4884 200.236 36.4096 200.75 36.4096C201.596 36.4096 202.247 36.6211 202.703 37.0441C203.168 37.4588 203.4 38.0932 203.4 38.9474V43.0029H202.554ZM200.302 43.0651C199.813 43.0651 199.386 42.9863 199.021 42.8288C198.665 42.6629 198.391 42.439 198.2 42.157C198.009 41.8667 197.914 41.535 197.914 41.1618C197.914 40.8218 197.993 40.5149 198.15 40.2412C198.316 39.9592 198.582 39.7353 198.947 39.5694C199.32 39.3953 199.817 39.3082 200.439 39.3082H202.691V39.9675H200.464C199.834 39.9675 199.394 40.0795 199.146 40.3034C198.905 40.5273 198.785 40.8052 198.785 41.1369C198.785 41.5101 198.93 41.8087 199.22 42.0326C199.51 42.2565 199.917 42.3685 200.439 42.3685C200.937 42.3685 201.364 42.2565 201.721 42.0326C202.086 41.8004 202.351 41.4686 202.517 41.0374L202.716 41.647C202.55 42.0782 202.26 42.4224 201.845 42.6795C201.439 42.9366 200.925 43.0651 200.302 43.0651ZM207.535 43.0029L204.636 36.4718H205.557L208.219 42.5302H207.784L210.483 36.4718H211.354L208.443 43.0029H207.535ZM212.776 43.0029V36.4718H213.659V43.0029H212.776ZM213.223 35.0288C213.041 35.0288 212.887 34.9666 212.763 34.8422C212.639 34.7178 212.576 34.5685 212.576 34.3943C212.576 34.2202 212.639 34.075 212.763 33.9589C212.887 33.8345 213.041 33.7723 213.223 33.7723C213.406 33.7723 213.559 33.8304 213.684 33.9465C213.808 34.0626 213.87 34.2077 213.87 34.3819C213.87 34.5644 213.808 34.7178 213.684 34.8422C213.568 34.9666 213.414 35.0288 213.223 35.0288ZM219.081 45.4785C218.484 45.4785 217.911 45.3914 217.364 45.2173C216.817 45.0431 216.373 44.7943 216.033 44.4709L216.481 43.7991C216.788 44.0728 217.165 44.2884 217.613 44.446C218.069 44.6119 218.55 44.6948 219.056 44.6948C219.885 44.6948 220.495 44.4999 220.885 44.1101C221.274 43.7286 221.469 43.1315 221.469 42.3187V40.6891L221.594 39.5694L221.507 38.4498V36.4718H222.352V42.2068C222.352 43.3347 222.075 44.1599 221.519 44.6824C220.972 45.2131 220.159 45.4785 219.081 45.4785ZM218.919 42.7541C218.297 42.7541 217.737 42.6214 217.24 42.356C216.742 42.0824 216.348 41.705 216.058 41.224C215.776 40.743 215.635 40.1915 215.635 39.5694C215.635 38.9474 215.776 38.4001 216.058 37.9273C216.348 37.4463 216.742 37.0731 217.24 36.8077C217.737 36.5423 218.297 36.4096 218.919 36.4096C219.5 36.4096 220.022 36.5299 220.486 36.7704C220.951 37.0109 221.32 37.3675 221.594 37.8403C221.867 38.313 222.004 38.8894 222.004 39.5694C222.004 40.2495 221.867 40.8259 221.594 41.2986C221.32 41.7714 220.951 42.1321 220.486 42.3809C220.022 42.6297 219.5 42.7541 218.919 42.7541ZM219.006 41.9704C219.487 41.9704 219.914 41.8709 220.287 41.6718C220.661 41.4645 220.955 41.1825 221.171 40.8259C221.386 40.461 221.494 40.0422 221.494 39.5694C221.494 39.0967 221.386 38.6821 221.171 38.3254C220.955 37.9688 220.661 37.691 220.287 37.4919C219.914 37.2846 219.487 37.1809 219.006 37.1809C218.533 37.1809 218.106 37.2846 217.725 37.4919C217.352 37.691 217.057 37.9688 216.841 38.3254C216.634 38.6821 216.53 39.0967 216.53 39.5694C216.53 40.0422 216.634 40.461 216.841 40.8259C217.057 41.1825 217.352 41.4645 217.725 41.6718C218.106 41.8709 218.533 41.9704 219.006 41.9704ZM229.081 43.0029V41.5599L229.043 41.3235V38.9101C229.043 38.3545 228.886 37.9273 228.571 37.6288C228.264 37.3302 227.804 37.1809 227.19 37.1809C226.767 37.1809 226.365 37.2514 225.983 37.3924C225.602 37.5334 225.278 37.72 225.013 37.9522L224.615 37.2929C224.947 37.0109 225.345 36.7953 225.809 36.646C226.273 36.4884 226.763 36.4096 227.277 36.4096C228.123 36.4096 228.774 36.6211 229.23 37.0441C229.694 37.4588 229.927 38.0932 229.927 38.9474V43.0029H229.081ZM226.829 43.0651C226.34 43.0651 225.913 42.9863 225.548 42.8288C225.191 42.6629 224.917 42.439 224.727 42.157C224.536 41.8667 224.441 41.535 224.441 41.1618C224.441 40.8218 224.519 40.5149 224.677 40.2412C224.843 39.9592 225.108 39.7353 225.473 39.5694C225.846 39.3953 226.344 39.3082 226.966 39.3082H229.218V39.9675H226.991C226.361 39.9675 225.921 40.0795 225.672 40.3034C225.432 40.5273 225.311 40.8052 225.311 41.1369C225.311 41.5101 225.457 41.8087 225.747 42.0326C226.037 42.2565 226.443 42.3685 226.966 42.3685C227.464 42.3685 227.891 42.2565 228.247 42.0326C228.612 41.8004 228.878 41.4686 229.043 41.0374L229.243 41.647C229.077 42.0782 228.786 42.4224 228.372 42.6795C227.965 42.9366 227.451 43.0651 226.829 43.0651ZM234.568 43.0651C233.955 43.0651 233.482 42.8993 233.15 42.5675C232.819 42.2358 232.653 41.7672 232.653 41.1618V35.0288H233.536V41.112C233.536 41.4935 233.631 41.7879 233.822 41.9953C234.021 42.2026 234.303 42.3063 234.668 42.3063C235.058 42.3063 235.381 42.1943 235.638 41.9704L235.949 42.6048C235.775 42.7624 235.564 42.8785 235.315 42.9532C235.074 43.0278 234.826 43.0651 234.568 43.0651ZM231.483 37.2058V36.4718H235.526V37.2058H231.483ZM240.166 43.0651C239.536 43.0651 238.968 42.9241 238.462 42.6422C237.964 42.3519 237.57 41.958 237.28 41.4604C236.99 40.9545 236.845 40.3781 236.845 39.7312C236.845 39.076 236.99 38.4996 237.28 38.002C237.57 37.5044 237.964 37.1146 238.462 36.8326C238.96 36.5506 239.528 36.4096 240.166 36.4096C240.813 36.4096 241.385 36.5506 241.883 36.8326C242.389 37.1146 242.783 37.5044 243.065 38.002C243.355 38.4996 243.5 39.076 243.5 39.7312C243.5 40.3781 243.355 40.9545 243.065 41.4604C242.783 41.958 242.389 42.3519 241.883 42.6422C241.377 42.9241 240.805 43.0651 240.166 43.0651ZM240.166 42.2814C240.639 42.2814 241.058 42.1777 241.423 41.9704C241.788 41.7548 242.074 41.4562 242.281 41.0747C242.497 40.6849 242.605 40.2371 242.605 39.7312C242.605 39.217 242.497 38.7691 242.281 38.3876C242.074 38.0061 241.788 37.7117 241.423 37.5044C241.058 37.2888 240.643 37.1809 240.179 37.1809C239.714 37.1809 239.3 37.2888 238.935 37.5044C238.57 37.7117 238.28 38.0061 238.064 38.3876C237.848 38.7691 237.74 39.217 237.74 39.7312C237.74 40.2371 237.848 40.6849 238.064 41.0747C238.28 41.4562 238.57 41.7548 238.935 41.9704C239.3 42.1777 239.71 42.2814 240.166 42.2814ZM245.481 43.0029V36.4718H246.327V38.2508L246.24 37.9398C246.423 37.4422 246.729 37.0648 247.161 36.8077C247.592 36.5423 248.127 36.4096 248.765 36.4096V37.268C248.732 37.268 248.699 37.268 248.666 37.268C248.633 37.2597 248.6 37.2556 248.566 37.2556C247.878 37.2556 247.339 37.4671 246.949 37.89C246.559 38.3047 246.364 38.8977 246.364 39.669V43.0029H245.481Z" fill="#BDBDBD"/>
<path d="M25.3046 29.6479L1.68802 13.3572C-0.705233 11.7064 0.108314 8.26926 3.09263 7.46098L28.1928 0.648518C29.2715 0.259268 30.4718 0.41443 31.4161 1.0652C32.3604 1.71597 32.9327 2.78239 32.9529 3.92903L31.4654 27.0309C31.289 29.773 27.6978 31.2987 25.3046 29.6479Z" fill="url(#paint0_linear_2104_2)"/>
<path d="M17.8152 33.6696L3.90193 6.46059C3.25348 5.19144 3.37072 3.66599 4.2055 2.51084C5.04028 1.3557 6.45186 0.765609 7.8604 0.982971L33.6451 4.9625C34.8493 5.14838 35.8911 5.90119 36.4456 6.98622C37.0001 8.07126 36.9999 9.35656 36.4451 10.4414L24.5671 33.6709C23.9168 34.9364 22.6134 35.7318 21.1907 35.7315C19.768 35.7313 18.4649 34.9353 17.8152 33.6696V33.6696Z" fill="url(#paint1_linear_2104_2)"/>
<path d="M32.8886 4.84517L20.0351 2.86133L4.25391 7.14627L10.553 19.4693L25.3034 29.6478C25.6289 29.8698 25.9868 30.0399 26.3645 30.152L31.9671 19.1954L32.8886 4.84517Z" fill="#001A49"/>
<path d="M101.021 9.08005C102.672 9.08005 104.01 7.74216 104.01 6.09178C104.01 4.44141 102.672 3.10352 101.021 3.10352C99.3711 3.10352 98.0332 4.44141 98.0332 6.09178C98.0332 7.74216 99.3711 9.08005 101.021 9.08005Z" fill="#001A49"/>
<path d="M43.6038 24.0622V10.5578C43.6038 10.2757 43.7051 10.0371 43.9076 9.84186C44.11 9.64661 44.3523 9.54899 44.6343 9.54899H57.1408C57.4229 9.54899 57.6615 9.65023 57.8567 9.8527C58.0592 10.0552 58.1605 10.2974 58.1605 10.5794V11.5991C58.1605 11.8811 58.0592 12.1233 57.8567 12.3258C57.6615 12.5211 57.4229 12.6187 57.1408 12.6187H47.6931V15.7751H55.8284C56.1104 15.7751 56.349 15.8764 56.5443 16.0789C56.7467 16.2741 56.848 16.5127 56.848 16.7948V17.8144C56.848 18.0964 56.7467 18.3386 56.5443 18.5411C56.349 18.7364 56.1104 18.834 55.8284 18.834H47.6931V22.0338H57.1191C57.3939 22.0338 57.629 22.1315 57.8242 22.3267C58.0194 22.5219 58.1171 22.7606 58.1171 23.0426V24.0839C58.1171 24.3659 58.0158 24.6082 57.8134 24.8106C57.6109 25.0059 57.3686 25.1035 57.0866 25.1035H44.6343C44.3523 25.1035 44.11 25.0059 43.9076 24.8106C43.7051 24.6082 43.6038 24.3587 43.6038 24.0622ZM76.3074 24.6371C76.3074 24.948 76.123 25.1035 75.7542 25.1035H73.1509C72.8762 25.1035 72.5724 25.0059 72.2398 24.8106C71.9144 24.6082 71.6649 24.3659 71.4914 24.0839L69.6474 21.1986C68.8881 20.0127 67.9697 19.4197 66.8923 19.4197H64.2456V24.0839C64.2456 24.3659 64.1444 24.6082 63.9419 24.8106C63.7466 25.0059 63.508 25.1035 63.226 25.1035H61.1868C60.9047 25.1035 60.6625 25.0059 60.46 24.8106C60.2575 24.6082 60.1563 24.3659 60.1563 24.0839V10.5794C60.1563 10.2974 60.2539 10.0552 60.4492 9.8527C60.6444 9.65023 60.883 9.54899 61.1651 9.54899H70.1138C71.7698 9.54899 73.1256 9.99371 74.1814 10.8832C75.2444 11.7726 75.7759 12.973 75.7759 14.4844C75.7759 16.5887 74.4128 17.9084 71.6866 18.4435C72.1205 18.6026 72.5218 18.8774 72.8906 19.2679C73.2594 19.6511 73.6824 20.2115 74.1597 20.9491L76.1339 24.0839C76.2496 24.2864 76.3074 24.4708 76.3074 24.6371ZM64.2456 16.35H68.8664C69.6112 16.35 70.2657 16.2018 70.8297 15.9053C71.401 15.6088 71.6866 15.1352 71.6866 14.4844C71.6866 13.8335 71.401 13.3599 70.8297 13.0634C70.2657 12.7669 69.6112 12.6187 68.8664 12.6187H64.2456V16.35ZM78.1188 24.0839V10.5794C78.1188 10.2974 78.2165 10.0552 78.4117 9.8527C78.607 9.65023 78.8456 9.54899 79.1276 9.54899H82.3166C82.5697 9.54899 82.8373 9.65023 83.1193 9.8527C83.4013 10.0552 83.6327 10.2974 83.8135 10.5794L90.3651 20.6563V10.5578C90.3651 10.2757 90.4627 10.0371 90.6579 9.84186C90.8604 9.64661 91.1026 9.54899 91.3847 9.54899H93.2503C93.5324 9.54899 93.771 9.64661 93.9662 9.84186C94.1687 10.0371 94.27 10.283 94.27 10.5794V24.0839C94.27 24.3659 94.1687 24.6082 93.9662 24.8106C93.771 25.0059 93.5324 25.1035 93.2503 25.1035H89.6492C89.3671 25.1035 89.0779 25.0059 88.7814 24.8106C88.4849 24.6082 88.2499 24.3659 88.0763 24.0839L82.078 14.7772V24.0839C82.078 24.3659 81.9767 24.6082 81.7743 24.8106C81.579 25.0059 81.3404 25.1035 81.0584 25.1035H79.1493C78.8673 25.1035 78.625 25.0059 78.4226 24.8106C78.2201 24.6082 78.1188 24.3659 78.1188 24.0839Z" fill="#AFB3FF"/>
<defs>
<linearGradient id="paint0_linear_2104_2" x1="17.1941" y1="36.7708" x2="31.9468" y2="14.3474" gradientUnits="userSpaceOnUse">
<stop stop-color="#FFD7A9"/>
<stop offset="1" stop-color="#FFAE70"/>
</linearGradient>
<linearGradient id="paint1_linear_2104_2" x1="22.3053" y1="43.9566" x2="45.9012" y2="20.6062" gradientUnits="userSpaceOnUse">
<stop stop-color="#CD10FF"/>
<stop offset="1" stop-color="#9F06FF"/>
</linearGradient>
</defs>
</svg>
